<svg version="1.2" xmlns="http://www.w3.org/2000/svg" viewBox="0 0 1920 1080" width="1920" height="1080">
	<title>புதிய திட்டம்</title>
	<defs>
		<linearGradient id="g1" x2="1" gradientUnits="userSpaceOnUse" gradientTransform="matrix(736.958,0,0,364.408,1527.955,433.257)">
			<stop offset="0" stop-color="#0bc1c7"/>
			<stop offset="1" stop-color="#324cfc"/>
		</linearGradient>
		<linearGradient id="g2" x2="1" gradientUnits="userSpaceOnUse" gradientTransform="matrix(743.1,0,0,395.784,-369.144,642.812)">
			<stop offset="0" stop-color="#0bc1c7"/>
			<stop offset="1" stop-color="#324cfc"/>
		</linearGradient>
		<linearGradient id="g3" x2="1" gradientUnits="userSpaceOnUse" gradientTransform="matrix(743.1,0,0,395.784,-279.144,899.812)">
			<stop offset="0" stop-color="#0bc1c7"/>
			<stop offset="1" stop-color="#324cfc"/>
		</linearGradient>
		<linearGradient id="g4" x2="1" gradientUnits="userSpaceOnUse" gradientTransform="matrix(651.435,0,0,465.569,1576.67,193.016)">
			<stop offset="0" stop-color="#3aa1c7"/>
			<stop offset="1" stop-color="#324cfc"/>
		</linearGradient>
		<linearGradient id="g5" x2="1" gradientUnits="userSpaceOnUse" gradientTransform="matrix(51.26,0,0,51.26,1743.001,777.368)">
			<stop offset="0" stop-color="#4bf6fa"/>
			<stop offset="1" stop-color="#324cfc"/>
		</linearGradient>
		<linearGradient id="g6" x2="1" gradientUnits="userSpaceOnUse" gradientTransform="matrix(51.26,0,0,51.26,1514.328,427.867)">
			<stop offset="0" stop-color="#3aa1c7"/>
			<stop offset="1" stop-color="#324cfc"/>
		</linearGradient>
		<linearGradient id="g7" x2="1" gradientUnits="userSpaceOnUse" gradientTransform="matrix(649.135,0,0,497.639,-197.416,-64.551)">
			<stop offset="0" stop-color="#86a3fc"/>
			<stop offset="1" stop-color="#30c4c7"/>
		</linearGradient>
		<linearGradient id="g8" x2="1" gradientUnits="userSpaceOnUse" gradientTransform="matrix(749.586,0,0,539.117,302.879,526.233)">
			<stop offset="0" stop-color="#3aa1c7"/>
			<stop offset=".999" stop-color="#90e5fc"/>
		</linearGradient>
		<linearGradient id="g9" x2="1" gradientUnits="userSpaceOnUse" gradientTransform="matrix(778.763,0,0,517.381,-492.834,292.622)">
			<stop offset="0" stop-color="#324cfc"/>
			<stop offset="1" stop-color="#3aa1c7"/>
		</linearGradient>
		<linearGradient id="g10" x2="1" gradientUnits="userSpaceOnUse" gradientTransform="matrix(51.267,0,0,51.267,203.57,406.15)">
			<stop offset="0" stop-color="#4bf6fa"/>
			<stop offset="1" stop-color="#324cfc"/>
		</linearGradient>
		<linearGradient id="g11" x2="1" gradientUnits="userSpaceOnUse" gradientTransform="matrix(51.267,0,0,51.267,273.457,90.389)">
			<stop offset="0" stop-color="#3aa1c7"/>
			<stop offset="1" stop-color="#324cfc"/>
		</linearGradient>
		<linearGradient id="g12" x2="1" gradientUnits="userSpaceOnUse" gradientTransform="matrix(51.267,0,0,51.267,488.593,724.46)">
			<stop offset="0" stop-color="#4bf6fa"/>
			<stop offset="1" stop-color="#324cfc"/>
		</linearGradient>
		<linearGradient id="g13" x2="1" gradientUnits="userSpaceOnUse" gradientTransform="matrix(113.26,0,0,100.572,903,439.428)">
			<stop offset="0" stop-color="#4bf6fa"/>
			<stop offset="1" stop-color="#324cfc"/>
		</linearGradient>
		<linearGradient id="g14" x2="1" gradientUnits="userSpaceOnUse" gradientTransform="matrix(69.428,0,0,61.651,1184.916,766.888)">
			<stop offset="0" stop-color="#4bf6fa"/>
			<stop offset="1" stop-color="#324cfc"/>
		</linearGradient>
		<linearGradient id="g15" x2="1" gradientUnits="userSpaceOnUse" gradientTransform="matrix(70.476,0,0,62.581,1229,31)">
			<stop offset="0" stop-color="#4bf6fa"/>
			<stop offset="1" stop-color="#324cfc"/>
		</linearGradient>
	</defs>
	<style>
		.s0 { fill: url(#g1) } 
		.s1 { fill: url(#g2) } 
		.s2 { fill: url(#g3) } 
		.s3 { fill: url(#g4) } 
		.s4 { fill: url(#g5) } 
		.s5 { fill: url(#g6) } 
		.s6 { fill: url(#g7) } 
		.s7 { fill: url(#g8) } 
		.s8 { fill: url(#g9) } 
		.s9 { fill: url(#g10) } 
		.s10 { fill: url(#g11) } 
		.s11 { fill: url(#g12) } 
		.s12 { fill: url(#g13) } 
		.s13 { fill: url(#g14) } 
		.s14 { fill: url(#g15) } 
	</style>
	<path id="&lt;Path&gt;" class="s0" d="m2264.6 703l-0.1-0.7c-2.3-13.8-15.3-23.1-29.1-20.8l-5.9 0.9c-13.8 2.3-26.9-7.1-29.1-20.9l-0.1-0.6c-2.3-13.8-15.3-23.1-29.1-20.8l-53.5 8.7c-13.9 2.3-27.1-7.1-29.4-21.1-2.3-14 7.2-27.1 21.1-29.4l79.1-13c13.8-2.3 23.1-15.3 20.9-29.1l-0.1-0.6c-2.3-13.8-15.3-23.1-29.1-20.9l-174 28.6c-14 2.2-27.1-7.2-29.4-21.2-2.3-13.9 7.2-27.1 21.1-29.4l174-28.5c13.8-2.3 23.1-15.3 20.9-29.1l-0.1-0.6c-2.3-13.8-15.3-23.2-29.1-20.9l-398.2 65.3c-14 2.3-23.4 15.5-21.2 29.4 2.3 14-7.1 27.2-21.1 29.4l-173.7 28.5c-13.9 2.3-23.4 15.5-21.1 29.5 2.3 13.9 15.5 23.4 29.4 21.1l173.7-28.5c14-2.3 27.1 7.2 29.4 21.2 2.3 13.9-7.1 27.1-21.1 29.4l-78.8 12.9c-13.9 2.3-23.4 15.5-21.1 29.4 2.3 14 15.5 23.5 29.4 21.2l53.2-8.8c14-2.2 27.2 7.2 29.5 21.2 2.2 13.9 15.4 23.4 29.4 21.1l5.3-0.9c14-2.2 27.2 7.2 29.4 21.2 2.3 13.9 15.5 23.4 29.5 21.1l398.2-65.3c13.8-2.2 23.1-15.3 20.9-29z"/>
	<path id="&lt;Path&gt; copy 4" class="s1" d="m-368.3 779.9l0.2 0.6c3.6 13.5 17.5 21.5 31 17.9l5.8-1.6c13.5-3.6 27.4 4.3 31.1 17.8l0.1 0.6c3.7 13.5 17.6 21.5 31.1 17.9l52.3-14.2c13.7-3.6 27.7 4.4 31.4 18.1 3.7 13.7-4.4 27.7-18 31.4l-77.4 20.9c-13.5 3.6-21.5 17.5-17.8 31l0.2 0.6c3.6 13.5 17.5 21.5 31 17.9l170.2-46c13.7-3.7 27.7 4.4 31.4 18.1 3.7 13.6-4.4 27.7-18 31.4l-170.2 45.9c-13.5 3.7-21.5 17.6-17.9 31.1l0.2 0.6c3.6 13.5 17.5 21.5 31 17.8l389.6-105.2c13.7-3.7 21.7-17.7 18-31.4-3.6-13.7 4.4-27.7 18.1-31.4l169.9-45.9c13.7-3.7 21.8-17.8 18.1-31.4-3.7-13.7-17.8-21.8-31.4-18.1l-170 45.9c-13.6 3.7-27.7-4.4-31.4-18-3.7-13.7 4.4-27.8 18.1-31.5l77-20.8c13.7-3.7 21.8-17.7 18.1-31.4-3.7-13.6-17.8-21.7-31.4-18l-52.1 14c-13.6 3.7-27.7-4.4-31.4-18-3.7-13.7-17.7-21.8-31.4-18.1l-5.2 1.4c-13.7 3.7-27.7-4.4-31.4-18-3.7-13.7-17.8-21.8-31.4-18.1l-389.6 105.2c-13.5 3.6-21.5 17.5-17.9 31z"/>
	<path id="&lt;Path&gt; copy 5" class="s2" d="m-278.3 1036.9l0.2 0.6c3.6 13.5 17.5 21.5 31 17.9l5.8-1.6c13.5-3.6 27.4 4.3 31.1 17.8l0.1 0.6c3.7 13.5 17.6 21.5 31.1 17.9l52.3-14.2c13.7-3.6 27.7 4.4 31.4 18.1 3.7 13.7-4.4 27.7-18 31.4l-77.4 20.9c-13.5 3.6-21.5 17.5-17.8 31l0.2 0.6c3.6 13.5 17.5 21.5 31 17.9l170.2-46c13.7-3.7 27.7 4.4 31.4 18.1 3.7 13.6-4.4 27.7-18 31.4l-170.2 45.9c-13.5 3.7-21.5 17.6-17.9 31.1l0.2 0.6c3.6 13.5 17.5 21.5 31 17.8l389.6-105.2c13.7-3.7 21.7-17.7 18-31.4-3.6-13.7 4.4-27.7 18.1-31.4l169.9-45.9c13.7-3.7 21.8-17.8 18.1-31.4-3.7-13.7-17.8-21.8-31.4-18.1l-170 45.9c-13.6 3.7-27.7-4.4-31.4-18-3.7-13.7 4.4-27.8 18.1-31.5l77-20.8c13.7-3.7 21.8-17.7 18.1-31.4-3.7-13.6-17.8-21.7-31.4-18l-52.1 14c-13.6 3.7-27.7-4.4-31.4-18-3.7-13.7-17.7-21.8-31.4-18.1l-5.2 1.4c-13.7 3.7-27.7-4.4-31.4-18-3.7-13.7-17.8-21.8-31.4-18.1l-389.6 105.2c-13.5 3.6-21.5 17.5-17.9 31z"/>
	<path id="&lt;Path&gt;" class="s3" d="m1826.9 501.8c2.2 13.7-7.1 26.5-20.7 28.8l-104.2 17.1c-13.7 2.2-22.9 15.1-20.7 28.7 2.2 13.7-7 26.6-20.7 28.8l-21.8 3.6c-13.7 2.2-23 15.1-20.7 28.8 2.2 13.6 15.1 22.9 28.8 20.7l351.4-57.7c13.7-2.2 22.9-15.1 20.7-28.8-2.2-13.6 7-26.5 20.7-28.7l21.8-3.6c13.7-2.3 22.9-15.1 20.7-28.8-2.2-13.6 7-26.5 20.7-28.8l104.2-17.1c13.7-2.2 22.9-15.1 20.7-28.7-2.3-13.7-15.2-22.9-28.8-20.7l-58.5 9.6c-13.6 2.2-26.5-7-28.8-20.7-2.2-13.6-15.1-22.9-28.7-20.7l-76.3 12.5c-13.7 2.3-26.5-7-28.8-20.6-2.2-13.7 7-26.6 20.7-28.8l30.5-5c13.7-2.2 22.9-15.1 20.7-28.8-2.3-13.6 7-26.5 20.6-28.8l62.2-10.2c13.7-2.2 22.9-15.1 20.7-28.7-2.2-13.7-15.1-22.9-28.8-20.7l-62.2 10.2c-13.6 2.2-26.5-7-28.7-20.7-2.3-13.6-15.2-22.9-28.8-20.7l-351.5 57.7c-13.6 2.2-22.9 15.1-20.7 28.8 2.3 13.6 15.2 22.9 28.8 20.6l62.2-10.2c13.7-2.2 26.6 7 28.8 20.7 2.2 13.7-7 26.5-20.7 28.8l-62.2 10.2c-13.6 2.2-22.9 15.1-20.6 28.7 2.2 13.7-7.1 26.6-20.7 28.8l-30.5 5c-13.7 2.3-22.9 15.2-20.7 28.8 2.2 13.7 15.1 22.9 28.8 20.7l76.2-12.5c13.7-2.3 26.6 7 28.8 20.6 2.3 13.7 15.1 23 28.8 20.7l58.5-9.6c13.6-2.2 26.5 7 28.8 20.7z"/>
	<path id="&lt;Path&gt;" class="s4" d="m1753.7 823.8c-11.5-8.3-14.1-24.2-5.9-35.7 8.3-11.6 24.3-14.2 35.8-5.9 11.5 8.3 14.1 24.2 5.8 35.7-8.2 11.6-24.2 14.2-35.7 5.9z"/>
	<path id="&lt;Path&gt;" class="s5" d="m1525 474.3c-11.5-8.3-14.1-24.2-5.9-35.7 8.3-11.6 24.3-14.2 35.8-5.9 11.5 8.3 14.1 24.2 5.9 35.7-8.3 11.6-24.3 14.2-35.8 5.9z"/>
	<path id="&lt;Path&gt;" class="s6" d="m-15.4 259.8c3.5 13.4-4.5 27.1-17.9 30.6l-102.2 26.7c-13.4 3.5-21.4 17.1-17.9 30.5 3.5 13.4-4.5 27.1-17.9 30.6l-21.5 5.6c-13.4 3.5-21.4 17.2-17.9 30.6 3.5 13.3 17.2 21.4 30.6 17.9l344.6-89.9c13.4-3.5 21.4-17.2 17.9-30.6-3.5-13.4 4.6-27 17.9-30.5l21.5-5.6c13.4-3.5 21.4-17.2 17.9-30.6-3.5-13.4 4.5-27.1 17.9-30.6l102.2-26.6c13.4-3.5 21.4-17.2 17.9-30.6-3.4-13.4-17.1-21.4-30.5-17.9l-57.4 15c-13.4 3.4-27-4.6-30.5-18-3.5-13.4-17.2-21.4-30.6-17.9l-74.8 19.5c-13.4 3.5-27.1-4.5-30.5-17.9-3.5-13.4 4.5-27.1 17.9-30.6l29.9-7.8c13.4-3.5 21.4-17.2 17.9-30.5-3.5-13.4 4.6-27.1 17.9-30.6l61-15.9c13.4-3.5 21.4-17.2 17.9-30.6-3.4-13.4-17.1-21.4-30.5-17.9l-61 15.9c-13.4 3.5-27.1-4.5-30.6-17.9-3.5-13.4-17.1-21.4-30.5-17.9l-344.7 89.8c-13.4 3.5-21.4 17.2-17.9 30.6 3.5 13.4 17.2 21.4 30.6 17.9l61-15.9c13.4-3.5 27 4.6 30.5 17.9 3.5 13.4-4.5 27.1-17.9 30.6l-61 15.9c-13.4 3.5-21.4 17.2-17.9 30.6 3.5 13.4-4.5 27.1-17.9 30.5l-29.9 7.9c-13.4 3.4-21.5 17.1-18 30.5 3.5 13.4 17.2 21.4 30.6 17.9l74.8-19.5c13.4-3.5 27.1 4.6 30.5 18 3.5 13.3 17.2 21.4 30.6 17.9l57.4-15c13.4-3.5 27 4.6 30.5 17.9z"/>
	<path id="&lt;Path&gt;" class="s7" d="m-171.7 885.4l-25 6.5c-13.7 3.6-21.9 17.6-18.3 31.3 3.6 13.7 17.6 21.9 31.3 18.3l95.7-24.9c13.7-3.6 27.7 4.6 31.2 18.3 3.6 13.7-4.6 27.7-18.3 31.2l-95.7 25c-13.7 3.6-21.9 17.6-18.3 31.3 3.5 13.7 17.5 21.9 31.2 18.3l53.3-13.9c13.6-3.6 27.6 4.6 31.2 18.3 3.6 13.7-4.6 27.7-18.3 31.3l-95.1 24.8c-13.7 3.6-21.9 17.6-18.3 31.2 3.6 13.7 17.6 21.9 31.3 18.4l390.1-101.8c13.7-3.6 21.9-17.6 18.4-31.2-3.6-13.7 4.6-27.7 18.3-31.3l95-24.8c13.7-3.6 21.9-17.6 18.4-31.3-3.6-13.6-17.6-21.8-31.3-18.3l-53.2 13.9c-13.7 3.6-27.7-4.6-31.3-18.3-3.5-13.7 4.7-27.7 18.4-31.3l95.7-24.9c13.7-3.6 21.9-17.6 18.3-31.3-3.6-13.7-17.6-21.9-31.3-18.3l-95.7 24.9c-13.7 3.6-27.7-4.6-31.2-18.3-3.6-13.7 4.6-27.7 18.3-31.2l25-6.6c13.7-3.5 21.9-17.5 18.3-31.2-3.6-13.7-17.6-21.9-31.3-18.3l-390.1 101.7c-13.7 3.6-21.9 17.6-18.4 31.3 3.6 13.7-4.6 27.7-18.3 31.2z"/>
	<path id="&lt;Path&gt;" class="s8" d="m-277.2 485l-191.3 49.9c-13.7 3.6-21.9 17.6-18.4 31.3 3.6 13.7 17.6 21.9 31.3 18.3l76.2-19.9c13.7-3.6 27.7 4.7 31.3 18.3 3.6 13.7-4.7 27.7-18.3 31.3l-107.3 28c-13.7 3.5-21.9 17.5-18.3 31.2 3.6 13.7 17.6 21.9 31.3 18.4l22.2-5.8c13.6-3.6 27.6 4.6 31.2 18.3 3.6 13.7 17.6 21.9 31.3 18.3l47.2-12.3c13.7-3.6 27.6 4.6 31.2 18.3l0.3 1.2c3.4 13.1-4.4 26.4-17.4 29.8-13.7 3.6-21.9 17.5-18.3 31.2 3.5 13.7 17.5 21.9 31.2 18.4l494.9-129.1c13.3-3.5 21.3-17.1 17.9-30.5l-0.4-1.2c-3.4-13.4 4.6-27 17.9-30.5 13.4-3.5 21.4-17.1 17.9-30.5l-0.3-1.2c-3.5-13.4-17.1-21.4-30.5-17.9l-48.4 12.6c-13.4 3.5-27-4.5-30.5-17.8l-0.3-1.2c-3.5-13.4-17.1-21.4-30.5-17.9l-22.8 5.9c-13.7 3.6-27.7-4.6-31.3-18.3-3.5-13.7 4.7-27.7 18.4-31.3l107.8-28.1c13.4-3.5 21.4-17.1 17.9-30.5l-0.3-1.2c-3.5-13.4-17.2-21.4-30.5-17.9l-76.9 20.1c-13.7 3.5-27.7-4.7-31.2-18.4-3.6-13.7 4.6-27.6 18.3-31.2l191.9-50.1c13.4-3.5 21.4-17.1 17.9-30.5l-0.3-1.2c-3.5-13.3-17.1-21.3-30.5-17.9l-494.9 129.1c-13.6 3.6-21.8 17.6-18.3 31.3 3.6 13.6-4.6 27.6-18.3 31.2z"/>
	<path id="&lt;Path&gt;" class="s9" d="m216.2 453.9c-12.2-7.2-16.3-22.9-9.1-35.1 7.2-12.2 22.8-16.3 35.1-9.1 12.2 7.1 16.3 22.8 9.1 35-7.2 12.3-22.8 16.4-35.1 9.2z"/>
	<path id="&lt;Path&gt;" class="s10" d="m286.1 138.1c-12.2-7.1-16.3-22.8-9.1-35 7.2-12.3 22.8-16.3 35-9.2 12.3 7.2 16.4 22.9 9.2 35.1-7.2 12.2-22.8 16.3-35.1 9.1z"/>
	<path id="&lt;Path&gt;" class="s11" d="m501.3 772.2c-12.3-7.2-16.3-22.8-9.2-35.1 7.2-12.2 22.9-16.3 35.1-9.1 12.2 7.2 16.3 22.8 9.1 35.1-7.1 12.2-22.8 16.3-35 9.1z"/>
	<path id="&lt;Path&gt; copy" class="s12" d="m931 533.1c-27-14.1-36-44.8-20.2-68.8 15.8-24 50.5-32 77.5-17.9 27 14 36 44.8 20.2 68.7-15.9 24-50.5 32-77.5 18z"/>
	<path id="&lt;Path&gt; copy 3" class="s13" d="m1202.1 824.3c-16.6-8.6-22.1-27.5-12.4-42.2 9.7-14.7 30.9-19.6 47.5-11 16.5 8.7 22.1 27.5 12.4 42.2-9.7 14.7-31 19.6-47.5 11z"/>
	<path id="&lt;Path&gt; copy 2" class="s14" d="m1246.4 89.3c-16.8-8.8-22.4-27.9-12.5-42.8 9.8-14.9 31.3-19.9 48.2-11.2 16.8 8.8 22.4 27.9 12.5 42.8-9.8 14.9-31.4 19.9-48.2 11.2z"/>
</svg>