<svg version="1.2" xmlns="http://www.w3.org/2000/svg" viewBox="0 0 843 688" width="843" height="688">
	<title>tool-svg</title>
	<style>
		.s0 { fill: none } 
		.s1 { fill: #616e7d } 
		.s2 { fill: #aad4c8 } 
		.s3 { fill: #82bfab } 
	</style>
	<g id="Object">
		<g>
			<path fill-rule="evenodd" class="s0" d="m263.2 187.8c-56.1 4.9-97.7 54.4-92.8 110.6 4.9 56.1 54.4 97.7 110.6 92.8 56.1-4.9 97.7-54.4 92.8-110.6-4.9-56.1-54.4-97.7-110.6-92.8z"/>
			<path fill-rule="evenodd" class="s0" d="m608.5 424.1c-31.7 19.6-42.7 62.4-24.4 94.8 19.6 34.5 63.5 46.2 97.5 26.1 33.6-19.9 44.7-63.2 24.9-96.8-20.1-33.9-64.3-45-98-24.1z"/>
			<path fill-rule="evenodd" class="s1" d="m462 370.6q-5.3 12.2-12 23.6l25.1 36.9c-11.4 16.3-24.7 31.2-39.6 44.3l-39.5-20.7c-7 5.2-14.4 10.1-22.1 14.5l3.2 44.5c-17.7 8.3-36.6 14.6-56.5 18.5l-23.8-37.8c-2.2 0.3-4.5 0.6-6.8 0.8-6.5 0.6-13.1 0.8-19.6 0.7l-19.5 40.2c-20.1-1.7-39.5-5.8-58.1-12.1l-1.8-44.6c-8.1-3.5-16-7.5-23.6-12l-36.9 25.1c-16.3-11.4-31.2-24.7-44.3-39.7l20.8-39.4q-8-10.6-14.5-22.2l-44.6 3.3c-8.3-17.7-14.5-36.7-18.5-56.5l37.8-23.8c-0.3-2.3-0.6-4.5-0.8-6.8-0.5-6.6-0.7-13.1-0.7-19.6l-40.1-19.4c1.7-20.2 5.7-39.6 12.1-58.2l44.5-1.8c3.5-8.1 7.5-16 12-23.6l-25-36.9c11.3-16.3 24.6-31.2 39.5-44.3l39.5 20.8c7-5.3 14.5-10.2 22.2-14.5l-3.3-44.6c17.7-8.3 36.7-14.5 56.5-18.5l23.8 37.8c2.3-0.3 4.5-0.6 6.8-0.8 6.6-0.5 13.1-0.8 19.6-0.7l19.5-40.2c20 1.7 39.6 5.9 58.1 12.2l1.8 44.5q12.2 5.3 23.6 12l36.9-25.1c16.3 11.4 31.2 24.7 44.3 39.6l-20.7 39.5c5.2 7 10.1 14.5 14.4 22.2l44.6-3.3c8.3 17.7 14.6 36.7 18.5 56.5l-37.8 23.8c0.3 2.3 0.6 4.5 0.8 6.8 0.6 6.6 0.8 13.1 0.7 19.6l40.2 19.5c-1.7 20.1-5.8 39.6-12.1 58.1zm-44.5-81c0-80.3-65.2-145.5-145.4-145.5-80.3 0-145.5 65.2-145.5 145.5 0 80.2 65.2 145.5 145.5 145.5 80.2 0 145.4-65.3 145.4-145.5z"/>
			<path fill-rule="evenodd" class="s1" d="m272.1 154.4c74.5 0 135.1 60.6 135.1 135.1 0 74.5-60.6 135.1-135.1 135.1-74.5 0-135.1-60.6-135.1-135.1 0-74.5 60.6-135.1 135.1-135.1zm-8.9 33.4c-56.1 4.9-97.7 54.4-92.8 110.6 4.9 56.1 54.4 97.7 110.6 92.8 56.1-4.9 97.7-54.4 92.8-110.6-4.9-56.1-54.4-97.7-110.6-92.8z"/>
			<path fill-rule="evenodd" class="s1" d="m647.9 370.3c63.8 1.4 114.7 54.4 113.3 118.2-1.3 63.9-54.3 114.7-118.2 113.4-63.8-1.4-114.6-54.4-113.3-118.2 1.3-63.9 54.3-114.7 118.2-113.4zm-39.4 53.8c-31.7 19.6-42.7 62.4-24.4 94.8 19.6 34.5 63.5 46.2 97.5 26.1 33.6-19.9 44.7-63.2 24.9-96.8-20.1-33.9-64.3-45-98-24.1z"/>
			<path fill-rule="evenodd" class="s1" d="m800.1 512.7c-1.4 8.4-3.5 16.6-6.3 24.6l23.6 22.4c-5.3 12.3-12 24.2-19.9 35.3l-31.3-8.6c-5.4 6.5-11.4 12.6-17.9 18.3l9.3 31c-5.4 4.1-11 7.9-16.9 11.3-5.9 3.5-11.9 6.7-18 9.4l-22.9-23.1c-8 3-16.2 5.3-24.5 6.9l-7.5 31.6c-13.6 1.6-27.2 1.7-40.6 0.4l-8.2-31.4c-8.5-1.5-16.6-3.5-24.7-6.3l-22.4 23.5c-12.4-5.3-24.2-11.9-35.3-19.9l8.6-31.2c-6.5-5.4-12.6-11.4-18.2-17.9l-31.2 9.3q-6-8.1-11.2-17c-3.6-5.8-6.7-11.9-9.4-18l23-22.8c-2.9-8.1-5.2-16.3-6.8-24.6l-31.6-7.5c-1.6-13.5-1.7-27.1-0.4-40.6l31.4-8.2c1.5-8.4 3.5-16.6 6.3-24.7l-23.6-22.3c5.4-12.4 12-24.3 20-35.4l31.2 8.6c5.4-6.5 11.4-12.5 17.9-18.2l-9.3-31.1c5.4-4 11-7.8 16.9-11.3 5.9-3.5 12-6.6 18.1-9.3l22.8 23q12.1-4.5 24.5-6.9l7.6-31.5c13.5-1.6 27.1-1.8 40.6-0.5l8.2 31.4c8.4 1.5 16.6 3.6 24.7 6.4l22.3-23.6c12.4 5.3 24.3 12 35.4 19.9l-8.6 31.3q9.7 8.1 18.2 17.9l31.1-9.3q6.1 8.1 11.3 16.9 5.2 8.8 9.4 18.1l-23.1 22.7c2.9 8.1 5.3 16.3 6.9 24.6l31.5 7.5c1.6 13.6 1.8 27.2 0.5 40.7zm-33.9-24.1c1.3-66.6-51.7-121.9-118.3-123.3-66.6-1.4-121.9 51.7-123.3 118.3-1.4 66.6 51.6 121.9 118.2 123.3 66.7 1.4 122-51.7 123.4-118.3z"/>
			<path fill-rule="evenodd" class="s2" d="m272.1 144c80.2 0 145.5 65.3 145.5 145.5 0 80.2-65.3 145.5-145.5 145.5-80.2 0-145.5-65.3-145.5-145.5 0-80.2 65.3-145.5 145.5-145.5zm0 10.4c-74.5 0-135.1 60.6-135.1 135.1 0 74.5 60.6 135.1 135.1 135.1 74.5 0 135.1-60.6 135.1-135.1 0-74.5-60.6-135.1-135.1-135.1z"/>
			<path fill-rule="evenodd" class="s3" d="m648 365.3c66.6 1.4 119.6 56.7 118.3 123.3-1.4 66.6-56.7 119.7-123.4 118.3-66.6-1.4-119.6-56.7-118.2-123.3 1.4-66.6 56.7-119.7 123.3-118.3zm-0.1 5c-63.9-1.3-116.9 49.5-118.2 113.4-1.3 63.8 49.5 116.8 113.3 118.2 63.9 1.3 116.9-49.5 118.2-113.4 1.4-63.8-49.4-116.8-113.3-118.2z"/>
		</g>
	</g>
</svg>